<svg xmlns="http://www.w3.org/2000/svg" viewBox="0 0 522.45 120.77"><defs><style>.cls-1{fill:#231f20;}.cls-2{fill:#e26025;}</style></defs><title>Asset 2</title><g id="Layer_2" data-name="Layer 2"><g id="Layer_1-2" data-name="Layer 1"><path class="cls-1" d="M109.63,43.4v3.13H99.43v2.53h8.21v3.13H99.43v2.53h10.2v3.14H96.28V43.4Z"/><path class="cls-1" d="M127.17,46.37v1.35H124V46.53h-8.19v2.53h8.37a3,3,0,0,1,3,3v2.85A2.9,2.9,0,0,1,126.3,57a2.86,2.86,0,0,1-2.1.87h-8.51a3,3,0,0,1-3-3V53.54h3.11v1.18H124V52.19h-8.33a3,3,0,0,1-3-3V46.37a3,3,0,0,1,3-3h8.51a3,3,0,0,1,3,3Z"/><path class="cls-1" d="M144.68,46.53H133.37v8.19h11.31v3.14H133.23a3,3,0,0,1-3-3V46.37a2.94,2.94,0,0,1,3-3h11.45Z"/><path class="cls-1" d="M0,77V24.15H23.31c11.1,0,17.2,7.53,17.2,16.57s-6.18,16.49-17.2,16.49h-14V77ZM31,40.72c0-5.08-3.73-8.41-9-8.41H9.28V49H22C27.27,49,31,45.71,31,40.72Z"/><path class="cls-1" d="M156.54,14.61A50,50,0,0,0,120.59,0,50,50,0,0,0,84.64,14.61a50.71,50.71,0,0,0-14.36,36,50.71,50.71,0,0,0,14.36,36,50,50,0,0,0,36,14.61,50,50,0,0,0,35.95-14.61,50.71,50.71,0,0,0,14.36-36A50.71,50.71,0,0,0,156.54,14.61ZM120.59,92.75A41.61,41.61,0,0,1,90.68,80.67a42.3,42.3,0,0,1-11.9-30,42.28,42.28,0,0,1,11.9-30,43,43,0,0,1,59.82,0,42.27,42.27,0,0,1,11.89,30,42.29,42.29,0,0,1-11.89,30A41.61,41.61,0,0,1,120.59,92.75Z"/><path class="cls-1" d="M313.33,77V32.31h-16V24.15h41.31v8.16h-16V77Z"/><polygon class="cls-1" points="415.76 24.15 404.18 24.15 383.41 77.03 393.95 77.03 409.97 33.42 425.99 77.03 436.53 77.03 415.76 24.15"/><path class="cls-1" d="M489.17,77V24.15h9.28V68.86h23.31V77Z"/><path class="cls-1" d="M207.77,32.31h18.34c5.24,0,9,3.25,9,8.33s-3.8,8.48-9,8.48h-8.26l4.31,7.32L234.44,77h10.62l-13-20.77c6.42-1,12.61-6.19,12.61-15.54,0-9.83-6.9-16.57-17.37-16.57H202.9Z"/><path class="cls-2" d="M262.55,117.8l.14,2.35c-3.18.2-6.81.2-10.23.2-2.8,0-4.56-1.59-4.6-4.14V100.59c0-2.56,1.8-4.15,4.6-4.15,3.42,0,7,0,10.23.21L262.55,99H253c-1.42,0-2.08.69-2.08,2.28v5.19h10.3V109H250.9v6.53c0,1.63.66,2.32,2.08,2.32Z"/><path class="cls-2" d="M281.15,96.75,280.94,99c-2-.1-4.53-.17-6.74-.17-3.46,0-4.81.1-4.81,3.63,0,2.62.9,3.38,3,3.9l4.84,1.21c3.66.9,4.8,3,4.8,6.71,0,5.49-2.41,6.5-8,6.5a40.91,40.91,0,0,1-7.4-.66l.21-2.25c4.05.14,5.32.21,7.29.18,3.67,0,4.81-.56,4.81-3.84,0-2.77-.93-3.42-3-3.94L271,109c-3.46-.86-4.7-3-4.7-6.63,0-5.57,2.42-6.29,7.74-6.29A35.75,35.75,0,0,1,281.15,96.75Z"/><path class="cls-2" d="M302.68,103.63c0,5.87-1.94,7.46-7.33,7.46-2.07,0-4-.14-5.5-.27v9.5h-3V96.47a70.05,70.05,0,0,1,8.2-.31C300.74,96.16,302.68,97.79,302.68,103.63Zm-3.08,0c0-3.84-1.17-4.84-4.63-4.84-2,0-3.77,0-5.12,0v9.65H295C298.43,108.43,299.6,107.46,299.6,103.63Z"/><path class="cls-2" d="M325.14,108.4c0,9.33-2.45,12.37-9.4,12.37s-9.43-3-9.43-12.37S308.79,96,315.74,96,325.14,99.07,325.14,108.4Zm-15.62,0c0,7.29,1.52,9.64,6.22,9.64s6.22-2.35,6.22-9.64-1.52-9.65-6.22-9.65S309.52,101.1,309.52,108.4Z"/><path class="cls-2" d="M347.09,120.32h-3.25l-2.11-7.46c-.62-1.8-1.59-2.49-3.18-2.49-2.21,0-3.94,0-5.25,0v10h-3V96.47a70.51,70.51,0,0,1,8.23-.31c5.53,0,7.7,1.52,7.7,6.88,0,3.87-1.24,5.74-4.38,6.15v.17a4.47,4.47,0,0,1,2.93,3.43Zm-3.94-17.11c0-3.49-1.18-4.42-4.7-4.42-2,0-3.8,0-5.15,0v8.92h5.15C342,107.71,343.15,106.74,343.15,103.21Z"/><path class="cls-2" d="M367.51,99.17h-7.7v21.15h-3V99.17h-7.68v-2.7h18.42Z"/><path class="cls-2" d="M385.07,96.75,384.86,99c-2-.1-4.52-.17-6.73-.17-3.46,0-4.81.1-4.81,3.63,0,2.62.9,3.38,3,3.9l4.84,1.21c3.66.9,4.8,3,4.8,6.71,0,5.49-2.42,6.5-8,6.5a40.85,40.85,0,0,1-7.4-.66l.21-2.25c4,.14,5.32.21,7.29.18,3.66,0,4.8-.56,4.8-3.84,0-2.77-.93-3.42-3-3.94L375,109c-3.46-.86-4.71-3-4.71-6.63,0-5.57,2.42-6.29,7.75-6.29A35.65,35.65,0,0,1,385.07,96.75Z"/><path class="cls-2" d="M401.38,115.48c0,1.59.73,2.28,2.32,2.28h8.61l.13,2.35c-3,.24-6.15.24-9.22.24-3.53,0-4.84-1.9-4.84-4.49V96.47h3Z"/><path class="cls-2" d="M433.6,108.4c0,9.33-2.46,12.37-9.41,12.37s-9.43-3-9.43-12.37S417.25,96,424.19,96,433.6,99.07,433.6,108.4Zm-15.63,0c0,7.29,1.52,9.64,6.22,9.64s6.23-2.35,6.23-9.64-1.52-9.65-6.23-9.65S418,101.1,418,108.4Z"/><path class="cls-2" d="M455.92,111.2c0,6.91-2.28,9.57-8.53,9.57-6.47,0-8.82-2.66-8.82-9.57V96.47h3V111.2c0,5.11,1.46,6.84,5.64,6.84s5.63-1.73,5.63-6.84V96.47h3Z"/><path class="cls-2" d="M480.11,119.11a1.06,1.06,0,0,1-1.17,1.21h-3a1.33,1.33,0,0,1-1.35-1l-8.05-16.9a25.59,25.59,0,0,1-1.35-3.14h-.55c.1,1,.13,2.11.13,3.14v17.87h-3V97.68A1.08,1.08,0,0,1,463,96.47h2.87a1.33,1.33,0,0,1,1.35,1L475,113.93c.48,1,1.11,2.28,1.62,3.45h.59c-.07-1.24-.1-2.42-.1-3.63V96.47h3Z"/><path class="cls-2" d="M502.48,106.53v13.79h-2.22l-.34-2.52a10.14,10.14,0,0,1-7.12,3c-5.36,0-7.54-3.87-7.54-12.44,0-9.47,2.6-12.31,10-12.31a26.63,26.63,0,0,1,6.63.73L501.54,99c-2.17-.21-4.39-.28-6.15-.28-5.15,0-6.91,1.46-6.91,9.79,0,7,1.31,9.57,5.15,9.57a9.71,9.71,0,0,0,5.87-2.32v-9.26Z"/><path class="cls-2" d="M522.31,117.8l.14,2.35c-3.18.2-6.81.2-10.23.2-2.8,0-4.56-1.59-4.59-4.14V100.59c0-2.56,1.79-4.15,4.59-4.15,3.42,0,7,0,10.23.21L522.31,99h-9.57c-1.42,0-2.07.69-2.07,2.28v5.19H521V109h-10.3v6.53c0,1.63.65,2.32,2.07,2.32Z"/></g></g></svg>